<?xml version="1.0" encoding="iso-8859-1"?>
<!-- Generator: Adobe Illustrator 19.0.0, SVG Export Plug-In . SVG Version: 6.00 Build 0)  -->
<svg version="1.1" id="Capa_1" xmlns="http://www.w3.org/2000/svg" xmlns:xlink="http://www.w3.org/1999/xlink" x="0px" y="0px"
	 viewBox="0 0 470 470" style="enable-background:new 0 0 470 470;" xml:space="preserve">
<g>
	<rect x="64.628" y="395.548" style="fill:#CF5530;" width="162.872" height="25"/>
	<rect x="242.5" y="395.548" style="fill:#CF5530;" width="162.872" height="25"/>
	<path style="fill:#34150C;" d="M462.5,308.359c4.143,0,7.5-3.358,7.5-7.5s-3.357-7.5-7.5-7.5h-12.128V49.08H462.5
		c4.143,0,7.5-3.358,7.5-7.5s-3.357-7.5-7.5-7.5h-12.128V21.952c0-4.142-3.357-7.5-7.5-7.5s-7.5,3.358-7.5,7.5V34.08H34.628V21.952
		c0-4.142-3.357-7.5-7.5-7.5s-7.5,3.358-7.5,7.5V34.08H7.5c-4.143,0-7.5,3.358-7.5,7.5s3.357,7.5,7.5,7.5h12.128v244.279H7.5
		c-4.143,0-7.5,3.358-7.5,7.5s3.357,7.5,7.5,7.5h12.128v92.189H7.5c-4.143,0-7.5,3.358-7.5,7.5s3.357,7.5,7.5,7.5h12.128v32.5
		c0,4.142,3.357,7.5,7.5,7.5s7.5-3.358,7.5-7.5v-32.5h15v12.5c0,4.142,3.357,7.5,7.5,7.5H227.5v12.5c0,4.142,3.357,7.5,7.5,7.5
		s7.5-3.358,7.5-7.5v-12.5h170.372c4.143,0,7.5-3.358,7.5-7.5v-12.5h15v32.5c0,4.142,3.357,7.5,7.5,7.5s7.5-3.358,7.5-7.5v-32.5
		H462.5c4.143,0,7.5-3.358,7.5-7.5s-3.357-7.5-7.5-7.5h-12.128v-92.189H462.5z M360.904,89.08v45.101H112.469V89.08H360.904z
		 M132.469,74.08v-25h208.436v25H132.469z M34.628,49.08h82.841v25h-12.5c-4.143,0-7.5,3.358-7.5,7.5v60.101
		c0,4.142,3.357,7.5,7.5,7.5h263.436c4.143,0,7.5-3.358,7.5-7.5V81.58c0-4.142-3.357-7.5-7.5-7.5h-12.5v-25h79.468v244.279h-15
		v-12.5c0-4.142-3.357-7.5-7.5-7.5H236.705c-0.549-0.128-1.118-0.202-1.705-0.202s-1.156,0.074-1.705,0.202H57.128
		c-4.143,0-7.5,3.358-7.5,7.5v12.5h-15V49.08z M138.563,288.359v92.189h-29.468v-92.189H138.563z M183.032,288.359v92.189h-29.469
		v-92.189H183.032z M227.5,288.359v92.189h-29.468v-92.189H227.5z M271.968,288.359v92.189H242.5v-92.189H271.968z M316.437,288.359
		v92.189h-29.469v-92.189H316.437z M360.904,288.359v92.189h-29.468v-92.189H360.904z M405.372,288.359v92.189h-29.468v-92.189
		H405.372z M94.096,380.548H64.628v-92.189h29.468V380.548z M64.628,395.548H227.5v25H64.628V395.548z M242.5,395.548h162.872v25
		H242.5V395.548z M34.628,400.548v-92.189h15v92.189H34.628z M435.372,400.548h-15v-92.189h15V400.548z"/>
	<rect x="112.469" y="89.08" style="fill:#EDC183;" width="248.436" height="45.101"/>
</g>
<g>
</g>
<g>
</g>
<g>
</g>
<g>
</g>
<g>
</g>
<g>
</g>
<g>
</g>
<g>
</g>
<g>
</g>
<g>
</g>
<g>
</g>
<g>
</g>
<g>
</g>
<g>
</g>
<g>
</g>
</svg>
